<mxfile host="app.diagrams.net" modified="2024-06-27T03:07:37.224Z" agent="Mozilla/5.0 (Windows NT 10.0; Win64; x64) AppleWebKit/537.36 (KHTML, like Gecko) Chrome/126.0.0.0 Safari/537.36" version="24.6.3" etag="8pt1fsSJVTYE3LVZalhz" type="github">
  <diagram name="Trang-1" id="_sXcY7eKj9PjwHy8QgXG">
    <mxGraphModel>
      <root>
        <mxCell id="0" />
        <mxCell id="1" parent="0" />
      </root>
    </mxGraphModel>
  </diagram>
</mxfile>
